<?xml version="1.0" encoding="utf-8"?>
<!-- Generator: Adobe Illustrator 24.0.2, SVG Export Plug-In . SVG Version: 6.00 Build 0)  -->
<svg version="1.1" id="图层_1" xmlns="http://www.w3.org/2000/svg" xmlns:xlink="http://www.w3.org/1999/xlink" x="0px" y="0px"
	 viewBox="0 0 200 200" style="enable-background:new 0 0 200 200;" xml:space="preserve">
<style type="text/css">
	.st0{fill:#FFFFFF;}
</style>
<path class="st0" d="M192.1,61.1c-5-11.9-12.3-22.6-21.4-31.8s-19.9-16.4-31.8-21.4C126.6,2.6,113.5,0,100,0S73.4,2.6,61.1,7.9
	c-11.9,5-22.6,12.2-31.8,21.4c-9.2,9.2-16.4,19.9-21.4,31.8C2.6,73.4,0,86.5,0,100s2.6,26.6,7.9,38.9c5,11.9,12.2,22.6,21.4,31.8
	c9.2,9.2,19.9,16.4,31.8,21.4c12.3,5.2,25.4,7.9,38.9,7.9s26.6-2.6,38.9-7.9c11.9-5,22.6-12.2,31.8-21.4s16.4-19.9,21.4-31.8
	c5.2-12.3,7.9-25.4,7.9-38.9S197.4,73.4,192.1,61.1L192.1,61.1z M181.3,134.4c-4.5,10.5-10.8,20-18.9,28.1s-17.6,14.5-28.1,18.9
	c-10.9,4.6-22.4,6.9-34.4,6.9s-23.5-2.3-34.4-6.9c-10.5-4.5-20-10.8-28.1-18.9s-14.5-17.6-18.9-28.1c-4.6-10.9-6.9-22.4-6.9-34.4
	s2.3-23.5,6.9-34.4c4.5-10.5,10.8-20,18.9-28.1s17.6-14.5,28.1-18.9c10.9-4.6,22.4-6.9,34.4-6.9s23.5,2.3,34.4,6.9
	c10.5,4.5,20,10.8,28.1,18.9s14.5,17.6,18.9,28.1c4.6,10.9,6.9,22.4,6.9,34.4S186,123.5,181.3,134.4z"/>
<path class="st0" d="M51.6,81.3c-3.2,0-5.9,2.6-5.9,5.9v25.8c0,3.2,2.6,5.9,5.9,5.9s5.9-2.6,5.9-5.9V87.1
	C57.4,83.9,54.8,81.3,51.6,81.3z M75.8,68.8c-3.2,0-5.9,2.6-5.9,5.9v50.8c0,3.2,2.6,5.9,5.9,5.9s5.9-2.6,5.9-5.9V74.6
	C81.6,71.4,79,68.8,75.8,68.8z M100,50c-3.2,0-5.9,2.6-5.9,5.9v88.3c0,3.2,2.6,5.9,5.9,5.9s5.9-2.6,5.9-5.9V55.9
	C105.9,52.6,103.2,50,100,50z M148.4,81.3c-3.2,0-5.9,2.6-5.9,5.9v25.8c0,3.2,2.6,5.9,5.9,5.9s5.9-2.6,5.9-5.9V87.1
	C154.3,83.9,151.7,81.3,148.4,81.3z M124.2,68.8c-3.2,0-5.9,2.6-5.9,5.9v50.8c0,3.2,2.6,5.9,5.9,5.9s5.9-2.6,5.9-5.9V74.6
	C130.1,71.4,127.4,68.8,124.2,68.8z"/>
</svg>
